<svg width="1440" height="3029" viewBox="0 0 1440 3029" fill="none" xmlns="http://www.w3.org/2000/svg">
<path fill-rule="evenodd" clip-rule="evenodd" d="M20 0C8.95431 0 0 8.95426 0 20V3009C0 3020.05 8.95431 3029 20 3029H815H1420C1431.05 3029 1440 3020.05 1440 3009V1009.84C1440 998.79 1431.05 989.836 1420 989.836H1258.86C1247.81 989.836 1238.86 980.881 1238.86 969.836L1238.86 897.005C1238.86 885.959 1229.9 877.005 1218.86 877.005H1059.24C1048.19 877.005 1039.24 868.05 1039.24 857.005V784.174C1039.24 773.128 1030.28 764.174 1019.24 764.174H835C823.954 764.174 815 755.219 815 744.174V245.662C815 234.616 806.046 225.662 795 225.662H620H441C429.954 225.662 421 216.708 421 205.662V132.831C421 121.785 412.046 112.831 401 112.831H241C229.954 112.831 221 103.877 221 92.831V20C221 8.95431 212.046 0 201 0H20Z" fill="#DFD3C3"/>
</svg>
