<svg width="316" height="240" viewBox="0 0 316 240" fill="none" xmlns="http://www.w3.org/2000/svg">
<path fill-rule="evenodd" clip-rule="evenodd" d="M-37 3C-37 -8.0457 -28.0457 -17 -17 -17H64H73H219.376H243H296C307.046 -17 316 -8.0457 316 3V97.75C316 108.796 307.046 117.75 296 117.75H263C251.954 117.75 243 126.704 243 137.75V150C243 161.046 234.046 170 223 170H93C81.9543 170 73 178.954 73 190V220C73 231.046 64.0457 240 53 240H-17C-28.0457 240 -37 231.046 -37 220V3Z" fill="#DFD3C3"/>
<path d="M113.875 78.7C114.475 80.25 114.883 81.2583 115.1 81.725C115.333 82.175 115.583 82.5 115.85 82.7V82.925C115.45 83.075 115.033 83.15 114.6 83.15C114.15 83.15 113.783 83.0417 113.5 82.825C113.233 82.5917 112.983 82.2333 112.75 81.75C112.517 81.2667 112.192 80.475 111.775 79.375C111.308 78.1583 110.908 77.2833 110.575 76.75C110.258 76.2 109.817 75.775 109.25 75.475C109.117 75.4917 108.925 75.5 108.675 75.5H106.3V81.525C106.3 82.025 106.167 82.425 105.9 82.725C105.65 83.0083 105.292 83.15 104.825 83.15C104.592 83.15 104.35 83.1167 104.1 83.05V70.15C104.1 69.0167 104.058 68.1583 103.975 67.575C103.908 66.975 103.767 66.425 103.55 65.925L103.75 65.4C105.35 65.2333 106.825 65.15 108.175 65.15C109.542 65.15 110.717 65.3667 111.7 65.8C112.7 66.2333 113.467 66.8417 114 67.625C114.533 68.4083 114.8 69.3167 114.8 70.35C114.8 71.45 114.5 72.4167 113.9 73.25C113.317 74.0667 112.492 74.6667 111.425 75.05C111.925 75.3 112.35 75.6917 112.7 76.225C113.05 76.7583 113.442 77.5833 113.875 78.7ZM105.9 67.125C106.067 67.525 106.175 67.9667 106.225 68.45C106.275 68.9167 106.3 69.4833 106.3 70.15V73.7H108.625C109.858 73.7 110.817 73.4083 111.5 72.825C112.2 72.2417 112.55 71.4083 112.55 70.325C112.55 69.275 112.208 68.4583 111.525 67.875C110.842 67.2917 109.817 67 108.45 67C107.717 67 106.867 67.0417 105.9 67.125ZM121.929 83.3C120.563 83.3 119.488 82.95 118.704 82.25C117.938 81.5333 117.554 80.575 117.554 79.375C117.554 78.1083 117.988 77.0917 118.854 76.325C119.721 75.5583 120.913 75.175 122.429 75.175C123.096 75.175 123.646 75.2417 124.079 75.375C124.529 75.5083 124.954 75.7 125.354 75.95V74.75C125.354 73.75 125.088 72.9833 124.554 72.45C124.021 71.9 123.246 71.625 122.229 71.625C121.463 71.625 120.788 71.7833 120.204 72.1C119.638 72.4 119.129 72.8583 118.679 73.475C118.129 73.275 117.854 72.8917 117.854 72.325C117.854 71.5917 118.296 71.0167 119.179 70.6C120.079 70.1833 121.129 69.975 122.329 69.975C123.979 69.975 125.229 70.4 126.079 71.25C126.929 72.0833 127.354 73.25 127.354 74.75V81.625C127.354 82.0917 127.229 82.4667 126.979 82.75C126.746 83.0167 126.413 83.15 125.979 83.15C125.779 83.15 125.554 83.1167 125.304 83.05V81.75C124.938 82.2833 124.488 82.675 123.954 82.925C123.421 83.175 122.746 83.3 121.929 83.3ZM122.254 81.7C123.204 81.7 123.954 81.475 124.504 81.025C125.071 80.575 125.354 79.9667 125.354 79.2V78.575C125.354 77.9917 125.129 77.5417 124.679 77.225C124.229 76.8917 123.571 76.725 122.704 76.725C121.704 76.725 120.938 76.95 120.404 77.4C119.871 77.85 119.604 78.5 119.604 79.35C119.604 80.1167 119.829 80.7 120.279 81.1C120.729 81.5 121.388 81.7 122.254 81.7ZM131.78 68.3C131.347 68.3 130.98 68.1583 130.68 67.875C130.397 67.575 130.255 67.2083 130.255 66.775C130.255 66.3417 130.397 65.9833 130.68 65.7C130.98 65.4 131.347 65.25 131.78 65.25C132.214 65.25 132.572 65.4 132.855 65.7C133.155 65.9833 133.305 66.3417 133.305 66.775C133.305 67.2083 133.155 67.575 132.855 67.875C132.572 68.1583 132.214 68.3 131.78 68.3ZM129.43 88.15C128.814 88.15 128.314 88.0333 127.93 87.8C127.547 87.5833 127.355 87.2833 127.355 86.9C127.355 86.7 127.414 86.5167 127.53 86.35C127.63 86.2 127.764 86.0917 127.93 86.025C128.364 86.1917 128.797 86.275 129.23 86.275C130.247 86.275 130.755 85.6 130.755 84.25V71.625C130.755 71.1583 130.872 70.7917 131.105 70.525C131.339 70.2417 131.672 70.1 132.105 70.1C132.322 70.1 132.555 70.1333 132.805 70.2V84.25C132.805 85.45 132.505 86.4 131.905 87.1C131.322 87.8 130.497 88.15 129.43 88.15ZM140.24 83.3C138.873 83.3 137.798 82.95 137.015 82.25C136.248 81.5333 135.865 80.575 135.865 79.375C135.865 78.1083 136.298 77.0917 137.165 76.325C138.032 75.5583 139.223 75.175 140.74 75.175C141.407 75.175 141.957 75.2417 142.39 75.375C142.84 75.5083 143.265 75.7 143.665 75.95V74.75C143.665 73.75 143.398 72.9833 142.865 72.45C142.332 71.9 141.557 71.625 140.54 71.625C139.773 71.625 139.098 71.7833 138.515 72.1C137.948 72.4 137.44 72.8583 136.99 73.475C136.44 73.275 136.165 72.8917 136.165 72.325C136.165 71.5917 136.607 71.0167 137.49 70.6C138.39 70.1833 139.44 69.975 140.64 69.975C142.29 69.975 143.54 70.4 144.39 71.25C145.24 72.0833 145.665 73.25 145.665 74.75V81.625C145.665 82.0917 145.54 82.4667 145.29 82.75C145.057 83.0167 144.723 83.15 144.29 83.15C144.09 83.15 143.865 83.1167 143.615 83.05V81.75C143.248 82.2833 142.798 82.675 142.265 82.925C141.732 83.175 141.057 83.3 140.24 83.3ZM140.565 81.7C141.515 81.7 142.265 81.475 142.815 81.025C143.382 80.575 143.665 79.9667 143.665 79.2V78.575C143.665 77.9917 143.44 77.5417 142.99 77.225C142.54 76.8917 141.882 76.725 141.015 76.725C140.015 76.725 139.248 76.95 138.715 77.4C138.182 77.85 137.915 78.5 137.915 79.35C137.915 80.1167 138.14 80.7 138.59 81.1C139.04 81.5 139.698 81.7 140.565 81.7ZM153.891 83.3C152.741 83.3 151.724 83.0333 150.841 82.5C149.958 81.9667 149.274 81.2 148.791 80.2C148.308 79.2 148.066 78.0333 148.066 76.7C148.066 75.35 148.308 74.1667 148.791 73.15C149.291 72.1333 149.974 71.35 150.841 70.8C151.724 70.2333 152.741 69.95 153.891 69.95C155.524 69.95 156.799 70.5083 157.716 71.625C158.649 72.725 159.116 74.225 159.116 76.125C159.116 76.5917 159.049 76.9083 158.916 77.075C158.799 77.2417 158.549 77.325 158.166 77.325H150.116C150.116 78.6417 150.449 79.6917 151.116 80.475C151.799 81.2583 152.708 81.65 153.841 81.65C154.674 81.65 155.424 81.4667 156.091 81.1C156.774 80.7333 157.316 80.25 157.716 79.65C158.216 79.8333 158.466 80.2083 158.466 80.775C158.466 81.225 158.241 81.6417 157.791 82.025C157.341 82.4083 156.758 82.7167 156.041 82.95C155.341 83.1833 154.624 83.3 153.891 83.3ZM157.066 75.65C157.033 74.3 156.766 73.2833 156.266 72.6C155.766 71.9 155.008 71.55 153.991 71.55C152.924 71.55 152.066 71.9167 151.416 72.65C150.766 73.3833 150.349 74.45 150.166 75.85L157.066 75.65ZM113.875 111.7C114.475 113.25 114.883 114.258 115.1 114.725C115.333 115.175 115.583 115.5 115.85 115.7V115.925C115.45 116.075 115.033 116.15 114.6 116.15C114.15 116.15 113.783 116.042 113.5 115.825C113.233 115.592 112.983 115.233 112.75 114.75C112.517 114.267 112.192 113.475 111.775 112.375C111.308 111.158 110.908 110.283 110.575 109.75C110.258 109.2 109.817 108.775 109.25 108.475C109.117 108.492 108.925 108.5 108.675 108.5H106.3V114.525C106.3 115.025 106.167 115.425 105.9 115.725C105.65 116.008 105.292 116.15 104.825 116.15C104.592 116.15 104.35 116.117 104.1 116.05V103.15C104.1 102.017 104.058 101.158 103.975 100.575C103.908 99.975 103.767 99.425 103.55 98.925L103.75 98.4C105.35 98.2333 106.825 98.15 108.175 98.15C109.542 98.15 110.717 98.3667 111.7 98.8C112.7 99.2333 113.467 99.8417 114 100.625C114.533 101.408 114.8 102.317 114.8 103.35C114.8 104.45 114.5 105.417 113.9 106.25C113.317 107.067 112.492 107.667 111.425 108.05C111.925 108.3 112.35 108.692 112.7 109.225C113.05 109.758 113.442 110.583 113.875 111.7ZM105.9 100.125C106.067 100.525 106.175 100.967 106.225 101.45C106.275 101.917 106.3 102.483 106.3 103.15V106.7H108.625C109.858 106.7 110.817 106.408 111.5 105.825C112.2 105.242 112.55 104.408 112.55 103.325C112.55 102.275 112.208 101.458 111.525 100.875C110.842 100.292 109.817 100 108.45 100C107.717 100 106.867 100.042 105.9 100.125ZM118.029 116.2C117.646 116.2 117.321 116.133 117.054 116L123.279 98.5H124.679L130.154 113.875C130.288 114.275 130.354 114.592 130.354 114.825C130.354 115.258 130.204 115.592 129.904 115.825C129.621 116.042 129.238 116.15 128.754 116.15L126.979 111.125H120.979L119.629 114.95C119.346 115.783 118.813 116.2 118.029 116.2ZM126.354 109.275L123.979 101.7L121.604 109.275H126.354ZM136.928 116.3C135.795 116.3 134.77 116.158 133.853 115.875C132.953 115.575 132.245 115.175 131.728 114.675C131.211 114.175 130.953 113.625 130.953 113.025C130.953 112.375 131.261 111.958 131.878 111.775C133.045 113.558 134.753 114.45 137.003 114.45C138.203 114.45 139.136 114.2 139.803 113.7C140.47 113.2 140.803 112.458 140.803 111.475C140.803 110.825 140.645 110.3 140.328 109.9C140.028 109.5 139.603 109.167 139.053 108.9C138.52 108.633 137.72 108.317 136.653 107.95C135.503 107.55 134.57 107.15 133.853 106.75C133.153 106.35 132.595 105.833 132.178 105.2C131.761 104.55 131.553 103.733 131.553 102.75C131.553 101.25 132.028 100.108 132.978 99.325C133.945 98.5417 135.328 98.15 137.128 98.15C138.645 98.15 139.92 98.4083 140.953 98.925C141.986 99.4417 142.503 100.142 142.503 101.025C142.503 101.692 142.195 102.117 141.578 102.3C141.078 101.517 140.461 100.942 139.728 100.575C139.011 100.192 138.12 100 137.053 100C134.753 100 133.603 100.85 133.603 102.55C133.603 103.183 133.753 103.7 134.053 104.1C134.37 104.5 134.77 104.825 135.253 105.075C135.736 105.325 136.42 105.617 137.303 105.95C138.703 106.467 139.761 106.917 140.478 107.3C141.211 107.667 141.795 108.175 142.228 108.825C142.678 109.458 142.903 110.3 142.903 111.35C142.903 113.1 142.336 114.367 141.203 115.15C140.086 115.917 138.661 116.3 136.928 116.3ZM156.045 114.1C156.111 114.3 156.145 114.517 156.145 114.75C156.145 115.15 156.011 115.458 155.745 115.675C155.495 115.892 155.153 116 154.72 116H145.695L145.495 115.475C145.711 114.975 145.853 114.458 145.92 113.925C146.003 113.375 146.045 112.592 146.045 111.575V102.925C146.045 101.908 146.003 101.133 145.92 100.6C145.853 100.05 145.711 99.525 145.495 99.025L145.695 98.5H155.645C155.711 98.7 155.745 98.9167 155.745 99.15C155.745 99.55 155.611 99.8583 155.345 100.075C155.095 100.292 154.753 100.4 154.32 100.4H147.945C148.061 100.767 148.136 101.15 148.17 101.55C148.22 101.933 148.245 102.392 148.245 102.925V106.1H154.845C154.911 106.3 154.945 106.517 154.945 106.75C154.945 107.15 154.811 107.458 154.545 107.675C154.295 107.892 153.953 108 153.52 108H148.245V111.575C148.245 112.108 148.22 112.575 148.17 112.975C148.136 113.358 148.061 113.733 147.945 114.1H156.045ZM157.333 115.2L166.033 100.4H157.833C157.766 100.2 157.733 99.9833 157.733 99.75C157.733 99.35 157.858 99.0417 158.108 98.825C158.374 98.6083 158.724 98.5 159.158 98.5H168.983V99.3L160.283 114.1H169.083C169.149 114.3 169.183 114.517 169.183 114.75C169.183 115.15 169.049 115.458 168.783 115.675C168.533 115.892 168.191 116 167.758 116H157.333V115.2ZM172.5 116.15C172.266 116.15 172.025 116.117 171.775 116.05V99.975C171.775 99.4917 171.9 99.1 172.15 98.8C172.4 98.5 172.758 98.35 173.225 98.35C173.475 98.35 173.725 98.3833 173.975 98.45V114.525C173.975 115.025 173.841 115.425 173.575 115.725C173.325 116.008 172.966 116.15 172.5 116.15ZM178.748 116.2C178.482 116.2 178.24 116.158 178.023 116.075V100.45C178.023 99.75 178.173 99.2167 178.473 98.85C178.79 98.4833 179.24 98.3 179.823 98.3C180.19 98.3 180.498 98.3583 180.748 98.475L188.373 112.75V99.925C188.373 99.4417 188.498 99.05 188.748 98.75C188.998 98.45 189.348 98.3 189.798 98.3C190.082 98.3 190.323 98.3417 190.523 98.425V114.05C190.523 114.75 190.365 115.283 190.048 115.65C189.748 116.017 189.307 116.2 188.723 116.2C188.357 116.2 188.048 116.142 187.798 116.025L180.173 101.75V114.575C180.173 115.058 180.048 115.45 179.798 115.75C179.548 116.05 179.198 116.2 178.748 116.2ZM204.677 114.1C204.744 114.3 204.777 114.517 204.777 114.75C204.777 115.15 204.644 115.458 204.377 115.675C204.127 115.892 203.786 116 203.352 116H194.327L194.127 115.475C194.344 114.975 194.486 114.458 194.552 113.925C194.636 113.375 194.677 112.592 194.677 111.575V102.925C194.677 101.908 194.636 101.133 194.552 100.6C194.486 100.05 194.344 99.525 194.127 99.025L194.327 98.5H204.277C204.344 98.7 204.377 98.9167 204.377 99.15C204.377 99.55 204.244 99.8583 203.977 100.075C203.727 100.292 203.386 100.4 202.952 100.4H196.577C196.694 100.767 196.769 101.15 196.802 101.55C196.852 101.933 196.877 102.392 196.877 102.925V106.1H203.477C203.544 106.3 203.577 106.517 203.577 106.75C203.577 107.15 203.444 107.458 203.177 107.675C202.927 107.892 202.586 108 202.152 108H196.877V111.575C196.877 112.108 196.852 112.575 196.802 112.975C196.769 113.358 196.694 113.733 196.577 114.1H204.677Z" fill="white"/>
</svg>
